<?xml version="1.0" encoding="UTF-8"?>
<!--Generator: Apple Native CoreSVG 232.5-->
<!DOCTYPE svg
PUBLIC "-//W3C//DTD SVG 1.1//EN"
       "http://www.w3.org/Graphics/SVG/1.1/DTD/svg11.dtd">
<svg version="1.1" xmlns="http://www.w3.org/2000/svg" xmlns:xlink="http://www.w3.org/1999/xlink" width="3300" height="2200">
 <!--glyph: "", point size: 100.0, font version: "19.2d2e1", template writer version: "128"-->
 <style>.monochrome-0 {-sfsymbols-motion-group:0}

.multicolor-0:tintColor {-sfsymbols-motion-group:0}

.hierarchical-0:primary {-sfsymbols-motion-group:0}

.SFSymbolsPreviewWireframe {fill:none;opacity:1.0;stroke:black;stroke-width:0.5}
</style>
 <g id="Notes">
  <rect height="2200" id="artboard" style="fill:white;opacity:1" width="3300" x="0" y="0"/>
  <line style="fill:none;stroke:black;opacity:1;stroke-width:0.5;" x1="263" x2="3036" y1="292" y2="292"/>
  <text style="stroke:none;fill:black;font-family:sans-serif;font-size:13;font-weight:bold;" transform="matrix(1 0 0 1 263 322)">Weight/Scale Variations</text>
  <text style="stroke:none;fill:black;font-family:sans-serif;font-size:13;text-anchor:middle;" transform="matrix(1 0 0 1 559.711 322)">Ultralight</text>
  <text style="stroke:none;fill:black;font-family:sans-serif;font-size:13;text-anchor:middle;" transform="matrix(1 0 0 1 856.422 322)">Thin</text>
  <text style="stroke:none;fill:black;font-family:sans-serif;font-size:13;text-anchor:middle;" transform="matrix(1 0 0 1 1153.13 322)">Light</text>
  <text style="stroke:none;fill:black;font-family:sans-serif;font-size:13;text-anchor:middle;" transform="matrix(1 0 0 1 1449.84 322)">Regular</text>
  <text style="stroke:none;fill:black;font-family:sans-serif;font-size:13;text-anchor:middle;" transform="matrix(1 0 0 1 1746.56 322)">Medium</text>
  <text style="stroke:none;fill:black;font-family:sans-serif;font-size:13;text-anchor:middle;" transform="matrix(1 0 0 1 2043.27 322)">Semibold</text>
  <text style="stroke:none;fill:black;font-family:sans-serif;font-size:13;text-anchor:middle;" transform="matrix(1 0 0 1 2339.98 322)">Bold</text>
  <text style="stroke:none;fill:black;font-family:sans-serif;font-size:13;text-anchor:middle;" transform="matrix(1 0 0 1 2636.69 322)">Heavy</text>
  <text style="stroke:none;fill:black;font-family:sans-serif;font-size:13;text-anchor:middle;" transform="matrix(1 0 0 1 2933.4 322)">Black</text>
  <line style="fill:none;stroke:black;opacity:1;stroke-width:0.5;" x1="263" x2="3036" y1="1903" y2="1903"/>
  <g transform="matrix(0.2 0 0 0.2 263 1933)">
   <path d="m46.2402 4.15039c21.5332 0 39.4531-17.8711 39.4531-39.4043s-17.9688-39.4043-39.502-39.4043c-21.4844 0-39.3555 17.8711-39.3555 39.4043s17.9199 39.4043 39.4043 39.4043Zm0-7.42188c-17.7246 0-31.8848-14.209-31.8848-31.9824s14.1113-31.9824 31.8359-31.9824c17.7734 0 32.0312 14.209 32.0312 31.9824s-14.209 31.9824-31.9824 31.9824Zm-17.9688-31.9824c0 2.14844 1.51367 3.61328 3.75977 3.61328h10.498v10.5957c0 2.19727 1.46484 3.71094 3.61328 3.71094 2.24609 0 3.71094-1.51367 3.71094-3.71094v-10.5957h10.5957c2.19727 0 3.71094-1.46484 3.71094-3.61328 0-2.19727-1.51367-3.71094-3.71094-3.71094h-10.5957v-10.5469c0-2.24609-1.46484-3.75977-3.71094-3.75977-2.14844 0-3.61328 1.51367-3.61328 3.75977v10.5469h-10.498c-2.24609 0-3.75977 1.51367-3.75977 3.71094Z"/>
  </g>
  <g transform="matrix(0.2 0 0 0.2 281.506 1933)">
   <path d="m58.5449 14.5508c27.2461 0 49.8047-22.6074 49.8047-49.8047 0-27.2461-22.6074-49.8047-49.8535-49.8047-27.1973 0-49.7559 22.5586-49.7559 49.8047 0 27.1973 22.6074 49.8047 49.8047 49.8047Zm0-8.30078c-23.0469 0-41.4551-18.457-41.4551-41.5039s18.3594-41.5039 41.4062-41.5039 41.5527 18.457 41.5527 41.5039-18.457 41.5039-41.5039 41.5039Zm-22.6562-41.5039c0 2.39258 1.66016 4.00391 4.15039 4.00391h14.3555v14.4043c0 2.44141 1.66016 4.15039 4.05273 4.15039 2.44141 0 4.15039-1.66016 4.15039-4.15039v-14.4043h14.4043c2.44141 0 4.15039-1.61133 4.15039-4.00391 0-2.44141-1.70898-4.15039-4.15039-4.15039h-14.4043v-14.3555c0-2.49023-1.70898-4.19922-4.15039-4.19922-2.39258 0-4.05273 1.70898-4.05273 4.19922v14.3555h-14.3555c-2.49023 0-4.15039 1.70898-4.15039 4.15039Z"/>
  </g>
  <g transform="matrix(0.2 0 0 0.2 304.924 1933)">
   <path d="m74.8535 28.3203c34.8145 0 63.623-28.8086 63.623-63.5742 0-34.8145-28.8574-63.623-63.6719-63.623-34.7656 0-63.5254 28.8086-63.5254 63.623 0 34.7656 28.8086 63.5742 63.5742 63.5742Zm0-9.08203c-30.1758 0-54.4434-24.3164-54.4434-54.4922 0-30.2246 24.2188-54.4922 54.3945-54.4922 30.2246 0 54.541 24.2676 54.541 54.4922 0 30.1758-24.2676 54.4922-54.4922 54.4922Zm-28.8574-54.4922c0 2.58789 1.85547 4.39453 4.58984 4.39453h19.7266v19.7754c0 2.68555 1.85547 4.58984 4.44336 4.58984 2.68555 0 4.54102-1.85547 4.54102-4.58984v-19.7754h19.7754c2.68555 0 4.58984-1.80664 4.58984-4.39453 0-2.73438-1.85547-4.58984-4.58984-4.58984h-19.7754v-19.7266c0-2.73438-1.85547-4.63867-4.54102-4.63867-2.58789 0-4.44336 1.9043-4.44336 4.63867v19.7266h-19.7266c-2.73438 0-4.58984 1.85547-4.58984 4.58984Z"/>
  </g>
  <text style="stroke:none;fill:black;font-family:sans-serif;font-size:13;font-weight:bold;" transform="matrix(1 0 0 1 263 1953)">Design Variations</text>
  <text style="stroke:none;fill:black;font-family:sans-serif;font-size:13;" transform="matrix(1 0 0 1 263 1971)">Symbols are supported in up to nine weights and three scales.</text>
  <text style="stroke:none;fill:black;font-family:sans-serif;font-size:13;" transform="matrix(1 0 0 1 263 1989)">For optimal layout with text and other symbols, vertically align</text>
  <text style="stroke:none;fill:black;font-family:sans-serif;font-size:13;" transform="matrix(1 0 0 1 263 2007)">symbols with the adjacent text.</text>
  <line style="fill:none;stroke:#00AEEF;stroke-width:0.5;opacity:1.0;" x1="776" x2="776" y1="1919" y2="1933"/>
  <g transform="matrix(0.2 0 0 0.2 776 1933)">
   <path d="m16.5527 0.78125c2.58789 0 3.85742-0.976562 4.78516-3.71094l6.29883-17.2363h28.8086l6.29883 17.2363c0.927734 2.73438 2.19727 3.71094 4.73633 3.71094 2.58789 0 4.24805-1.5625 4.24805-4.00391 0-0.830078-0.146484-1.61133-0.537109-2.63672l-22.9004-60.9863c-1.12305-2.97852-3.125-4.49219-6.25-4.49219-3.02734 0-5.07812 1.46484-6.15234 4.44336l-22.9004 61.084c-0.390625 1.02539-0.537109 1.80664-0.537109 2.63672 0 2.44141 1.5625 3.95508 4.10156 3.95508Zm13.4766-28.3691 11.8652-32.8613h0.244141l11.8652 32.8613Z"/>
  </g>
  <line style="fill:none;stroke:#00AEEF;stroke-width:0.5;opacity:1.0;" x1="792.836" x2="792.836" y1="1919" y2="1933"/>
  <text style="stroke:none;fill:black;font-family:sans-serif;font-size:13;font-weight:bold;" transform="matrix(1 0 0 1 776 1953)">Margins</text>
  <text style="stroke:none;fill:black;font-family:sans-serif;font-size:13;" transform="matrix(1 0 0 1 776 1971)">Leading and trailing margins on the left and right side of each symbol</text>
  <text style="stroke:none;fill:black;font-family:sans-serif;font-size:13;" transform="matrix(1 0 0 1 776 1989)">can be adjusted by modifying the x-location of the margin guidelines.</text>
  <text style="stroke:none;fill:black;font-family:sans-serif;font-size:13;" transform="matrix(1 0 0 1 776 2007)">Modifications are automatically applied proportionally to all</text>
  <text style="stroke:none;fill:black;font-family:sans-serif;font-size:13;" transform="matrix(1 0 0 1 776 2025)">scales and weights.</text>
  <g transform="matrix(0.2 0 0 0.2 1289 1933)">
   <path d="m14.209 9.32617 8.49609 8.54492c4.29688 4.3457 9.22852 4.05273 13.8672-1.07422l53.4668-58.9355-4.83398-4.88281-53.0762 58.3984c-1.75781 2.00195-3.41797 2.49023-5.76172 0.146484l-5.85938-5.81055c-2.34375-2.29492-1.80664-4.00391 0.195312-5.81055l57.373-54.0039-4.88281-4.83398-57.959 54.4434c-4.93164 4.58984-5.32227 9.47266-1.02539 13.8184Zm32.0801-90.9668c-2.09961 2.05078-2.24609 4.93164-1.07422 6.88477 1.17188 1.80664 3.4668 2.97852 6.68945 2.14844 7.32422-1.70898 14.9414-2.00195 22.0703 2.68555l-2.92969 7.27539c-1.70898 4.15039-0.830078 7.08008 1.85547 9.81445l11.4746 11.5723c2.44141 2.44141 4.49219 2.53906 7.32422 2.05078l5.32227-0.976562 3.32031 3.36914-0.195312 2.7832c-0.195312 2.49023 0.439453 4.39453 2.88086 6.78711l3.80859 3.71094c2.39258 2.39258 5.46875 2.53906 7.8125 0.195312l14.5508-14.5996c2.34375-2.34375 2.24609-5.32227-0.146484-7.71484l-3.85742-3.80859c-2.39258-2.39258-4.24805-3.17383-6.64062-2.97852l-2.88086 0.244141-3.22266-3.17383 1.2207-5.61523c0.634766-2.83203-0.146484-5.0293-3.07617-7.95898l-10.9863-10.9375c-16.6992-16.6016-38.8672-16.2109-53.3203-1.75781Zm7.4707 1.85547c12.1582-8.88672 28.6133-7.37305 39.7461 3.75977l12.1582 12.0605c1.17188 1.17188 1.36719 2.09961 1.02539 3.80859l-1.61133 7.42188 7.51953 7.42188 4.93164-0.292969c1.26953-0.0488281 1.66016 0.0488281 2.63672 1.02539l2.88086 2.88086-12.207 12.207-2.88086-2.88086c-0.976562-0.976562-1.12305-1.36719-1.07422-2.68555l0.341797-4.88281-7.4707-7.42188-7.61719 1.26953c-1.61133 0.341797-2.34375 0.195312-3.56445-0.976562l-10.0098-10.0098c-1.26953-1.17188-1.41602-2.00195-0.634766-3.85742l4.39453-10.4492c-7.8125-7.27539-17.9688-10.4004-28.125-7.42188-0.78125 0.195312-1.07422-0.439453-0.439453-0.976562Z"/>
  </g>
  <text style="stroke:none;fill:black;font-family:sans-serif;font-size:13;font-weight:bold;" transform="matrix(1 0 0 1 1289 1953)">Exporting</text>
  <text style="stroke:none;fill:black;font-family:sans-serif;font-size:13;" transform="matrix(1 0 0 1 1289 1971)">Symbols should be outlined when exporting to ensure the</text>
  <text style="stroke:none;fill:black;font-family:sans-serif;font-size:13;" transform="matrix(1 0 0 1 1289 1989)">design is preserved when submitting to Xcode.</text>
  <text id="template-version" style="stroke:none;fill:black;font-family:sans-serif;font-size:13;text-anchor:end;" transform="matrix(1 0 0 1 3036 1933)">Template v.5.0</text>
  <text style="stroke:none;fill:black;font-family:sans-serif;font-size:13;text-anchor:end;" transform="matrix(1 0 0 1 3036 1951)">Requires Xcode 15 or greater</text>
  <text id="descriptive-name" style="stroke:none;fill:black;font-family:sans-serif;font-size:13;text-anchor:end;" transform="matrix(1 0 0 1 3036 1969)">Generated from party.popper.fill.pixel</text>
  <text style="stroke:none;fill:black;font-family:sans-serif;font-size:13;text-anchor:end;" transform="matrix(1 0 0 1 3036 1987)">Typeset at 100.0 points</text>
  <text style="stroke:none;fill:black;font-family:sans-serif;font-size:13;" transform="matrix(1 0 0 1 263 726)">Small</text>
  <text style="stroke:none;fill:black;font-family:sans-serif;font-size:13;" transform="matrix(1 0 0 1 263 1156)">Medium</text>
  <text style="stroke:none;fill:black;font-family:sans-serif;font-size:13;" transform="matrix(1 0 0 1 263 1586)">Large</text>
 </g>
 <g id="Guides">
  <g id="H-reference" style="fill:#27AAE1;stroke:none;" transform="matrix(1 0 0 1 339 696)">
   <path d="M0.993654 0L3.63775 0L29.3281-67.1323L30.0303-67.1323L30.0303-70.459L28.1226-70.459ZM11.6885-24.4799L46.9815-24.4799L46.2315-26.7285L12.4385-26.7285ZM55.1196 0L57.7637 0L30.6382-70.459L29.4326-70.459L29.4326-67.1323Z"/>
  </g>
  <line id="Baseline-S" style="fill:none;stroke:#27AAE1;opacity:1;stroke-width:0.5;" x1="263" x2="3036" y1="696" y2="696"/>
  <line id="Capline-S" style="fill:none;stroke:#27AAE1;opacity:1;stroke-width:0.5;" x1="263" x2="3036" y1="625.541" y2="625.541"/>
  <g id="H-reference" style="fill:#27AAE1;stroke:none;" transform="matrix(1 0 0 1 339 1126)">
   <path d="M0.993654 0L3.63775 0L29.3281-67.1323L30.0303-67.1323L30.0303-70.459L28.1226-70.459ZM11.6885-24.4799L46.9815-24.4799L46.2315-26.7285L12.4385-26.7285ZM55.1196 0L57.7637 0L30.6382-70.459L29.4326-70.459L29.4326-67.1323Z"/>
  </g>
  <line id="Baseline-M" style="fill:none;stroke:#27AAE1;opacity:1;stroke-width:0.5;" x1="263" x2="3036" y1="1126" y2="1126"/>
  <line id="Capline-M" style="fill:none;stroke:#27AAE1;opacity:1;stroke-width:0.5;" x1="263" x2="3036" y1="1055.54" y2="1055.54"/>
  <g id="H-reference" style="fill:#27AAE1;stroke:none;" transform="matrix(1 0 0 1 339 1556)">
   <path d="M0.993654 0L3.63775 0L29.3281-67.1323L30.0303-67.1323L30.0303-70.459L28.1226-70.459ZM11.6885-24.4799L46.9815-24.4799L46.2315-26.7285L12.4385-26.7285ZM55.1196 0L57.7637 0L30.6382-70.459L29.4326-70.459L29.4326-67.1323Z"/>
  </g>
  <line id="Baseline-L" style="fill:none;stroke:#27AAE1;opacity:1;stroke-width:0.5;" x1="263" x2="3036" y1="1556" y2="1556"/>
  <line id="Capline-L" style="fill:none;stroke:#27AAE1;opacity:1;stroke-width:0.5;" x1="263" x2="3036" y1="1485.54" y2="1485.54"/>
  <line id="left-margin-Ultralight-S" style="fill:none;stroke:#00AEEF;stroke-width:0.5;opacity:1.0;" x1="507.908" x2="507.908" y1="600.785" y2="720.121"/>
  <line id="right-margin-Ultralight-S" style="fill:none;stroke:#00AEEF;stroke-width:0.5;opacity:1.0;" x1="611.514" x2="611.514" y1="600.785" y2="720.121"/>
  <line id="left-margin-Regular-S" style="fill:none;stroke:#00AEEF;stroke-width:0.5;opacity:1.0;" x1="1395.82" x2="1395.82" y1="600.785" y2="720.121"/>
  <line id="right-margin-Regular-S" style="fill:none;stroke:#00AEEF;stroke-width:0.5;opacity:1.0;" x1="1503.87" x2="1503.87" y1="600.785" y2="720.121"/>
  <line id="left-margin-Black-S" style="fill:none;stroke:#00AEEF;stroke-width:0.5;opacity:1.0;" x1="2874.98" x2="2874.98" y1="600.785" y2="720.121"/>
  <line id="right-margin-Black-S" style="fill:none;stroke:#00AEEF;stroke-width:0.5;opacity:1.0;" x1="2991.82" x2="2991.82" y1="600.785" y2="720.121"/>
 </g>
 <g id="Symbols">
  <g id="Black-S" transform="matrix(1 0 0 1 2874.98 696)">
   <path class="monochrome-0 multicolor-0:tintColor hierarchical-0:primary SFSymbolsPreviewWireframe" d="M71.4899-21.1952L58.8469-21.1952L58.8469-14.7497L71.4899-14.7497L71.4899-21.1952ZM103.305-27.5386L96.8844-27.5386L96.8844-21.1952L103.305-21.1952L103.305-27.5386ZM90.7661-27.5386L84.2249-27.5386L84.2249-21.1952L90.7661-21.1952L90.7661-27.5386ZM77.9538-33.8395L71.4899-33.8395L71.4899-21.1952L77.9538-21.1952L77.9538-33.8395ZM58.8386-27.5386L52.4204-27.5386L52.4204-33.8395L58.8469-33.8395L58.8469-40.1911L52.4204-40.1911L52.4204-33.8648L46.1595-33.8648L46.1595-40.1911L39.7412-40.1911L39.7412-52.817L33.323-52.817L33.323-40.1911L27.1572-40.1911L27.1572-27.5386L20.8715-27.5386L20.8715-14.7497L14.6466-14.7497L14.6466-2.14279L8.12-2.14279L8.12 4.23104L14.6466 4.23104L14.6466 10.5358L21.1733 10.5358L21.1733 4.16193L33.467 4.16193L33.467-2.13391L46.1595-2.13391L46.1595-8.50774L58.8386-8.50774L58.8386-21.1952L58.8469-21.1952L58.8469-27.5176L58.8386-27.5176L58.8386-27.5386ZM90.7661-46.5979L90.7661-52.817L84.2249-52.817L84.2249-46.5979L77.9538-46.5979L77.9538-40.1911L84.2249-40.1911L84.2249-33.8395L90.7661-33.8395L90.7661-40.1911L96.8844-40.1911L96.8844-46.5979L90.7661-46.5979ZM71.4899-40.1911L65.2049-40.1911L65.2049-33.8648L71.4899-33.8648L71.4899-40.1911ZM109.574-46.5979L103.305-46.5979L103.305-40.1911L109.574-40.1911L109.574-46.5979ZM65.2049-46.5041L58.8469-46.5041L58.8469-40.1911L65.2049-40.1911L65.2049-46.5041ZM58.8469-52.817L52.4204-52.817L52.4204-46.5041L58.8469-46.5041L58.8469-52.817ZM71.4899-52.817L65.2049-52.817L65.2049-46.5979L71.4899-46.5979L71.4899-52.817ZM52.4204-59.182L39.8611-59.182L39.8611-52.817L52.4204-52.817L52.4204-59.182ZM84.2249-65.5742L77.9538-65.5742L77.9538-59.182L84.2249-59.182L84.2249-65.5742ZM65.2049-65.5742L58.8469-65.5742L58.8469-59.182L65.2049-59.182L65.2049-65.5742ZM52.4204-71.8922L46.1595-71.8922L46.1595-65.5742L52.4204-65.5742L52.4204-71.8922ZM90.7661-71.8922L84.2249-71.8922L84.2249-65.5742L90.7661-65.5742L90.7661-71.8922ZM71.4899-84.6279L71.4899-90.918L65.2049-90.918L65.2049-84.6279L58.8469-84.6279L58.8469-78.2464L65.2049-78.2464L65.2049-71.8922L71.4899-71.8922L71.4899-78.2464L77.9538-78.2464L77.9538-84.6279L71.4899-84.6279ZM46.1595-84.6279L39.8611-84.6279L39.8611-78.2464L46.1595-78.2464L46.1595-84.6279ZM103.305-84.6279L96.8844-84.6279L96.8844-78.2464L103.305-78.2464L103.305-84.6279Z"/>
  </g>
  <g id="Regular-S" transform="matrix(1 0 0 1 1395.82 696)">
   <path class="monochrome-0 multicolor-0:tintColor hierarchical-0:primary SFSymbolsPreviewWireframe" d="M66.2199-21.1952L53.5769-21.1952L53.5769-14.7497L66.2199-14.7497L66.2199-21.1952ZM98.0346-27.5386L91.6144-27.5386L91.6144-21.1952L98.0346-21.1952L98.0346-27.5386ZM85.4961-27.5386L78.9549-27.5386L78.9549-21.1952L85.4961-21.1952L85.4961-27.5386ZM72.6838-33.8395L66.2199-33.8395L66.2199-21.1952L72.6838-21.1952L72.6838-33.8395ZM53.5686-27.5386L47.1504-27.5386L47.1504-33.8395L53.5769-33.8395L53.5769-40.1911L47.1504-40.1911L47.1504-33.8648L40.8895-33.8648L40.8895-40.1911L34.4712-40.1911L34.4712-52.817L28.053-52.817L28.053-40.1911L21.8872-40.1911L21.8872-27.5386L15.6015-27.5386L15.6015-14.7497L9.37665-14.7497L9.37665-2.14279L2.85-2.14279L2.85 4.23104L9.37665 4.23104L9.37665 10.5358L15.9033 10.5358L15.9033 4.16193L28.197 4.16193L28.197-2.13391L40.8895-2.13391L40.8895-8.50774L53.5686-8.50774L53.5686-21.1952L53.5769-21.1952L53.5769-27.5176L53.5686-27.5176L53.5686-27.5386ZM85.4961-46.5979L85.4961-52.817L78.9549-52.817L78.9549-46.5979L72.6838-46.5979L72.6838-40.1911L78.9549-40.1911L78.9549-33.8395L85.4961-33.8395L85.4961-40.1911L91.6144-40.1911L91.6144-46.5979L85.4961-46.5979ZM66.2199-40.1911L59.9349-40.1911L59.9349-33.8648L66.2199-33.8648L66.2199-40.1911ZM104.304-46.5979L98.0346-46.5979L98.0346-40.1911L104.304-40.1911L104.304-46.5979ZM59.9349-46.5041L53.5769-46.5041L53.5769-40.1911L59.9349-40.1911L59.9349-46.5041ZM53.5769-52.817L47.1504-52.817L47.1504-46.5041L53.5769-46.5041L53.5769-52.817ZM66.2199-52.817L59.9349-52.817L59.9349-46.5979L66.2199-46.5979L66.2199-52.817ZM47.1504-59.182L34.5911-59.182L34.5911-52.817L47.1504-52.817L47.1504-59.182ZM78.9549-65.5742L72.6838-65.5742L72.6838-59.182L78.9549-59.182L78.9549-65.5742ZM59.9349-65.5742L53.5769-65.5742L53.5769-59.182L59.9349-59.182L59.9349-65.5742ZM47.1504-71.8922L40.8895-71.8922L40.8895-65.5742L47.1504-65.5742L47.1504-71.8922ZM85.4961-71.8922L78.9549-71.8922L78.9549-65.5742L85.4961-65.5742L85.4961-71.8922ZM66.2199-84.6279L66.2199-90.918L59.9349-90.918L59.9349-84.6279L53.5769-84.6279L53.5769-78.2464L59.9349-78.2464L59.9349-71.8922L66.2199-71.8922L66.2199-78.2464L72.6838-78.2464L72.6838-84.6279L66.2199-84.6279ZM40.8895-84.6279L34.5911-84.6279L34.5911-78.2464L40.8895-78.2464L40.8895-84.6279ZM98.0346-84.6279L91.6144-84.6279L91.6144-78.2464L98.0346-78.2464L98.0346-84.6279Z"/>
  </g>
  <g id="Ultralight-S" transform="matrix(1 0 0 1 507.908 696)">
   <path class="monochrome-0 multicolor-0:tintColor hierarchical-0:primary SFSymbolsPreviewWireframe" d="M64.0589-21.1952L51.4159-21.1952L51.4159-14.7497L64.0589-14.7497L64.0589-21.1952ZM95.8736-27.5386L89.4534-27.5386L89.4534-21.1952L95.8736-21.1952L95.8736-27.5386ZM83.3351-27.5386L76.7939-27.5386L76.7939-21.1952L83.3351-21.1952L83.3351-27.5386ZM70.5228-33.8395L64.0589-33.8395L64.0589-21.1952L70.5228-21.1952L70.5228-33.8395ZM51.4076-27.5386L44.9894-27.5386L44.9894-33.8395L51.4159-33.8395L51.4159-40.1911L44.9894-40.1911L44.9894-33.8648L38.7285-33.8648L38.7285-40.1911L32.3102-40.1911L32.3102-52.817L25.892-52.817L25.892-40.1911L19.7262-40.1911L19.7262-27.5386L13.4405-27.5386L13.4405-14.7497L7.21565-14.7497L7.21565-2.14279L0.689-2.14279L0.689 4.23104L7.21565 4.23104L7.21565 10.5358L13.7423 10.5358L13.7423 4.16193L26.036 4.16193L26.036-2.13391L38.7285-2.13391L38.7285-8.50774L51.4076-8.50774L51.4076-21.1952L51.4159-21.1952L51.4159-27.5176L51.4076-27.5176L51.4076-27.5386ZM83.3351-46.5979L83.3351-52.817L76.7939-52.817L76.7939-46.5979L70.5228-46.5979L70.5228-40.1911L76.7939-40.1911L76.7939-33.8395L83.3351-33.8395L83.3351-40.1911L89.4534-40.1911L89.4534-46.5979L83.3351-46.5979ZM64.0589-40.1911L57.7739-40.1911L57.7739-33.8648L64.0589-33.8648L64.0589-40.1911ZM102.143-46.5979L95.8736-46.5979L95.8736-40.1911L102.143-40.1911L102.143-46.5979ZM57.7739-46.5041L51.4159-46.5041L51.4159-40.1911L57.7739-40.1911L57.7739-46.5041ZM51.4159-52.817L44.9894-52.817L44.9894-46.5041L51.4159-46.5041L51.4159-52.817ZM64.0589-52.817L57.7739-52.817L57.7739-46.5979L64.0589-46.5979L64.0589-52.817ZM44.9894-59.182L32.4301-59.182L32.4301-52.817L44.9894-52.817L44.9894-59.182ZM76.7939-65.5742L70.5228-65.5742L70.5228-59.182L76.7939-59.182L76.7939-65.5742ZM57.7739-65.5742L51.4159-65.5742L51.4159-59.182L57.7739-59.182L57.7739-65.5742ZM44.9894-71.8922L38.7285-71.8922L38.7285-65.5742L44.9894-65.5742L44.9894-71.8922ZM83.3351-71.8922L76.7939-71.8922L76.7939-65.5742L83.3351-65.5742L83.3351-71.8922ZM64.0589-84.6279L64.0589-90.918L57.7739-90.918L57.7739-84.6279L51.4159-84.6279L51.4159-78.2464L57.7739-78.2464L57.7739-71.8922L64.0589-71.8922L64.0589-78.2464L70.5228-78.2464L70.5228-84.6279L64.0589-84.6279ZM38.7285-84.6279L32.4301-84.6279L32.4301-78.2464L38.7285-78.2464L38.7285-84.6279ZM95.8736-84.6279L89.4534-84.6279L89.4534-78.2464L95.8736-78.2464L95.8736-84.6279Z"/>
  </g>
 </g>
</svg>
