<?xml version="1.0" encoding="UTF-8"?>
<!--Generator: Apple Native CoreSVG 232.5-->
<!DOCTYPE svg
PUBLIC "-//W3C//DTD SVG 1.1//EN"
       "http://www.w3.org/Graphics/SVG/1.1/DTD/svg11.dtd">
<svg version="1.1" xmlns="http://www.w3.org/2000/svg" xmlns:xlink="http://www.w3.org/1999/xlink" width="3300" height="2200">
 <!--glyph: "", point size: 100.0, font version: "19.2d2e1", template writer version: "128"-->
 <style>.monochrome-0 {-sfsymbols-motion-group:0}

.multicolor-0:tintColor {-sfsymbols-motion-group:0}

.hierarchical-0:primary {-sfsymbols-motion-group:0}

.SFSymbolsPreviewWireframe {fill:none;opacity:1.0;stroke:black;stroke-width:0.5}
</style>
 <g id="Notes">
  <rect height="2200" id="artboard" style="fill:white;opacity:1" width="3300" x="0" y="0"/>
  <line style="fill:none;stroke:black;opacity:1;stroke-width:0.5;" x1="263" x2="3036" y1="292" y2="292"/>
  <text style="stroke:none;fill:black;font-family:sans-serif;font-size:13;font-weight:bold;" transform="matrix(1 0 0 1 263 322)">Weight/Scale Variations</text>
  <text style="stroke:none;fill:black;font-family:sans-serif;font-size:13;text-anchor:middle;" transform="matrix(1 0 0 1 559.711 322)">Ultralight</text>
  <text style="stroke:none;fill:black;font-family:sans-serif;font-size:13;text-anchor:middle;" transform="matrix(1 0 0 1 856.422 322)">Thin</text>
  <text style="stroke:none;fill:black;font-family:sans-serif;font-size:13;text-anchor:middle;" transform="matrix(1 0 0 1 1153.13 322)">Light</text>
  <text style="stroke:none;fill:black;font-family:sans-serif;font-size:13;text-anchor:middle;" transform="matrix(1 0 0 1 1449.84 322)">Regular</text>
  <text style="stroke:none;fill:black;font-family:sans-serif;font-size:13;text-anchor:middle;" transform="matrix(1 0 0 1 1746.56 322)">Medium</text>
  <text style="stroke:none;fill:black;font-family:sans-serif;font-size:13;text-anchor:middle;" transform="matrix(1 0 0 1 2043.27 322)">Semibold</text>
  <text style="stroke:none;fill:black;font-family:sans-serif;font-size:13;text-anchor:middle;" transform="matrix(1 0 0 1 2339.98 322)">Bold</text>
  <text style="stroke:none;fill:black;font-family:sans-serif;font-size:13;text-anchor:middle;" transform="matrix(1 0 0 1 2636.69 322)">Heavy</text>
  <text style="stroke:none;fill:black;font-family:sans-serif;font-size:13;text-anchor:middle;" transform="matrix(1 0 0 1 2933.4 322)">Black</text>
  <line style="fill:none;stroke:black;opacity:1;stroke-width:0.5;" x1="263" x2="3036" y1="1903" y2="1903"/>
  <g transform="matrix(0.2 0 0 0.2 263 1933)">
   <path d="m46.2402 4.15039c21.5332 0 39.4531-17.8711 39.4531-39.4043s-17.9688-39.4043-39.502-39.4043c-21.4844 0-39.3555 17.8711-39.3555 39.4043s17.9199 39.4043 39.4043 39.4043Zm0-7.42188c-17.7246 0-31.8848-14.209-31.8848-31.9824s14.1113-31.9824 31.8359-31.9824c17.7734 0 32.0312 14.209 32.0312 31.9824s-14.209 31.9824-31.9824 31.9824Zm-17.9688-31.9824c0 2.14844 1.51367 3.61328 3.75977 3.61328h10.498v10.5957c0 2.19727 1.46484 3.71094 3.61328 3.71094 2.24609 0 3.71094-1.51367 3.71094-3.71094v-10.5957h10.5957c2.19727 0 3.71094-1.46484 3.71094-3.61328 0-2.19727-1.51367-3.71094-3.71094-3.71094h-10.5957v-10.5469c0-2.24609-1.46484-3.75977-3.71094-3.75977-2.14844 0-3.61328 1.51367-3.61328 3.75977v10.5469h-10.498c-2.24609 0-3.75977 1.51367-3.75977 3.71094Z"/>
  </g>
  <g transform="matrix(0.2 0 0 0.2 281.506 1933)">
   <path d="m58.5449 14.5508c27.2461 0 49.8047-22.6074 49.8047-49.8047 0-27.2461-22.6074-49.8047-49.8535-49.8047-27.1973 0-49.7559 22.5586-49.7559 49.8047 0 27.1973 22.6074 49.8047 49.8047 49.8047Zm0-8.30078c-23.0469 0-41.4551-18.457-41.4551-41.5039s18.3594-41.5039 41.4062-41.5039 41.5527 18.457 41.5527 41.5039-18.457 41.5039-41.5039 41.5039Zm-22.6562-41.5039c0 2.39258 1.66016 4.00391 4.15039 4.00391h14.3555v14.4043c0 2.44141 1.66016 4.15039 4.05273 4.15039 2.44141 0 4.15039-1.66016 4.15039-4.15039v-14.4043h14.4043c2.44141 0 4.15039-1.61133 4.15039-4.00391 0-2.44141-1.70898-4.15039-4.15039-4.15039h-14.4043v-14.3555c0-2.49023-1.70898-4.19922-4.15039-4.19922-2.39258 0-4.05273 1.70898-4.05273 4.19922v14.3555h-14.3555c-2.49023 0-4.15039 1.70898-4.15039 4.15039Z"/>
  </g>
  <g transform="matrix(0.2 0 0 0.2 304.924 1933)">
   <path d="m74.8535 28.3203c34.8145 0 63.623-28.8086 63.623-63.5742 0-34.8145-28.8574-63.623-63.6719-63.623-34.7656 0-63.5254 28.8086-63.5254 63.623 0 34.7656 28.8086 63.5742 63.5742 63.5742Zm0-9.08203c-30.1758 0-54.4434-24.3164-54.4434-54.4922 0-30.2246 24.2188-54.4922 54.3945-54.4922 30.2246 0 54.541 24.2676 54.541 54.4922 0 30.1758-24.2676 54.4922-54.4922 54.4922Zm-28.8574-54.4922c0 2.58789 1.85547 4.39453 4.58984 4.39453h19.7266v19.7754c0 2.68555 1.85547 4.58984 4.44336 4.58984 2.68555 0 4.54102-1.85547 4.54102-4.58984v-19.7754h19.7754c2.68555 0 4.58984-1.80664 4.58984-4.39453 0-2.73438-1.85547-4.58984-4.58984-4.58984h-19.7754v-19.7266c0-2.73438-1.85547-4.63867-4.54102-4.63867-2.58789 0-4.44336 1.9043-4.44336 4.63867v19.7266h-19.7266c-2.73438 0-4.58984 1.85547-4.58984 4.58984Z"/>
  </g>
  <text style="stroke:none;fill:black;font-family:sans-serif;font-size:13;font-weight:bold;" transform="matrix(1 0 0 1 263 1953)">Design Variations</text>
  <text style="stroke:none;fill:black;font-family:sans-serif;font-size:13;" transform="matrix(1 0 0 1 263 1971)">Symbols are supported in up to nine weights and three scales.</text>
  <text style="stroke:none;fill:black;font-family:sans-serif;font-size:13;" transform="matrix(1 0 0 1 263 1989)">For optimal layout with text and other symbols, vertically align</text>
  <text style="stroke:none;fill:black;font-family:sans-serif;font-size:13;" transform="matrix(1 0 0 1 263 2007)">symbols with the adjacent text.</text>
  <line style="fill:none;stroke:#00AEEF;stroke-width:0.5;opacity:1.0;" x1="776" x2="776" y1="1919" y2="1933"/>
  <g transform="matrix(0.2 0 0 0.2 776 1933)">
   <path d="m16.5527 0.78125c2.58789 0 3.85742-0.976562 4.78516-3.71094l6.29883-17.2363h28.8086l6.29883 17.2363c0.927734 2.73438 2.19727 3.71094 4.73633 3.71094 2.58789 0 4.24805-1.5625 4.24805-4.00391 0-0.830078-0.146484-1.61133-0.537109-2.63672l-22.9004-60.9863c-1.12305-2.97852-3.125-4.49219-6.25-4.49219-3.02734 0-5.07812 1.46484-6.15234 4.44336l-22.9004 61.084c-0.390625 1.02539-0.537109 1.80664-0.537109 2.63672 0 2.44141 1.5625 3.95508 4.10156 3.95508Zm13.4766-28.3691 11.8652-32.8613h0.244141l11.8652 32.8613Z"/>
  </g>
  <line style="fill:none;stroke:#00AEEF;stroke-width:0.5;opacity:1.0;" x1="792.836" x2="792.836" y1="1919" y2="1933"/>
  <text style="stroke:none;fill:black;font-family:sans-serif;font-size:13;font-weight:bold;" transform="matrix(1 0 0 1 776 1953)">Margins</text>
  <text style="stroke:none;fill:black;font-family:sans-serif;font-size:13;" transform="matrix(1 0 0 1 776 1971)">Leading and trailing margins on the left and right side of each symbol</text>
  <text style="stroke:none;fill:black;font-family:sans-serif;font-size:13;" transform="matrix(1 0 0 1 776 1989)">can be adjusted by modifying the x-location of the margin guidelines.</text>
  <text style="stroke:none;fill:black;font-family:sans-serif;font-size:13;" transform="matrix(1 0 0 1 776 2007)">Modifications are automatically applied proportionally to all</text>
  <text style="stroke:none;fill:black;font-family:sans-serif;font-size:13;" transform="matrix(1 0 0 1 776 2025)">scales and weights.</text>
  <g transform="matrix(0.2 0 0 0.2 1289 1933)">
   <path d="m14.209 9.32617 8.49609 8.54492c4.29688 4.3457 9.22852 4.05273 13.8672-1.07422l53.4668-58.9355-4.83398-4.88281-53.0762 58.3984c-1.75781 2.00195-3.41797 2.49023-5.76172 0.146484l-5.85938-5.81055c-2.34375-2.29492-1.80664-4.00391 0.195312-5.81055l57.373-54.0039-4.88281-4.83398-57.959 54.4434c-4.93164 4.58984-5.32227 9.47266-1.02539 13.8184Zm32.0801-90.9668c-2.09961 2.05078-2.24609 4.93164-1.07422 6.88477 1.17188 1.80664 3.4668 2.97852 6.68945 2.14844 7.32422-1.70898 14.9414-2.00195 22.0703 2.68555l-2.92969 7.27539c-1.70898 4.15039-0.830078 7.08008 1.85547 9.81445l11.4746 11.5723c2.44141 2.44141 4.49219 2.53906 7.32422 2.05078l5.32227-0.976562 3.32031 3.36914-0.195312 2.7832c-0.195312 2.49023 0.439453 4.39453 2.88086 6.78711l3.80859 3.71094c2.39258 2.39258 5.46875 2.53906 7.8125 0.195312l14.5508-14.5996c2.34375-2.34375 2.24609-5.32227-0.146484-7.71484l-3.85742-3.80859c-2.39258-2.39258-4.24805-3.17383-6.64062-2.97852l-2.88086 0.244141-3.22266-3.17383 1.2207-5.61523c0.634766-2.83203-0.146484-5.0293-3.07617-7.95898l-10.9863-10.9375c-16.6992-16.6016-38.8672-16.2109-53.3203-1.75781Zm7.4707 1.85547c12.1582-8.88672 28.6133-7.37305 39.7461 3.75977l12.1582 12.0605c1.17188 1.17188 1.36719 2.09961 1.02539 3.80859l-1.61133 7.42188 7.51953 7.42188 4.93164-0.292969c1.26953-0.0488281 1.66016 0.0488281 2.63672 1.02539l2.88086 2.88086-12.207 12.207-2.88086-2.88086c-0.976562-0.976562-1.12305-1.36719-1.07422-2.68555l0.341797-4.88281-7.4707-7.42188-7.61719 1.26953c-1.61133 0.341797-2.34375 0.195312-3.56445-0.976562l-10.0098-10.0098c-1.26953-1.17188-1.41602-2.00195-0.634766-3.85742l4.39453-10.4492c-7.8125-7.27539-17.9688-10.4004-28.125-7.42188-0.78125 0.195312-1.07422-0.439453-0.439453-0.976562Z"/>
  </g>
  <text style="stroke:none;fill:black;font-family:sans-serif;font-size:13;font-weight:bold;" transform="matrix(1 0 0 1 1289 1953)">Exporting</text>
  <text style="stroke:none;fill:black;font-family:sans-serif;font-size:13;" transform="matrix(1 0 0 1 1289 1971)">Symbols should be outlined when exporting to ensure the</text>
  <text style="stroke:none;fill:black;font-family:sans-serif;font-size:13;" transform="matrix(1 0 0 1 1289 1989)">design is preserved when submitting to Xcode.</text>
  <text id="template-version" style="stroke:none;fill:black;font-family:sans-serif;font-size:13;text-anchor:end;" transform="matrix(1 0 0 1 3036 1933)">Template v.5.0</text>
  <text style="stroke:none;fill:black;font-family:sans-serif;font-size:13;text-anchor:end;" transform="matrix(1 0 0 1 3036 1951)">Requires Xcode 15 or greater</text>
  <text id="descriptive-name" style="stroke:none;fill:black;font-family:sans-serif;font-size:13;text-anchor:end;" transform="matrix(1 0 0 1 3036 1969)">Generated from l2cu.head.pixel</text>
  <text style="stroke:none;fill:black;font-family:sans-serif;font-size:13;text-anchor:end;" transform="matrix(1 0 0 1 3036 1987)">Typeset at 100.0 points</text>
  <text style="stroke:none;fill:black;font-family:sans-serif;font-size:13;" transform="matrix(1 0 0 1 263 726)">Small</text>
  <text style="stroke:none;fill:black;font-family:sans-serif;font-size:13;" transform="matrix(1 0 0 1 263 1156)">Medium</text>
  <text style="stroke:none;fill:black;font-family:sans-serif;font-size:13;" transform="matrix(1 0 0 1 263 1586)">Large</text>
 </g>
 <g id="Guides">
  <g id="H-reference" style="fill:#27AAE1;stroke:none;" transform="matrix(1 0 0 1 339 696)">
   <path d="M0.993654 0L3.63775 0L29.3281-67.1323L30.0303-67.1323L30.0303-70.459L28.1226-70.459ZM11.6885-24.4799L46.9815-24.4799L46.2315-26.7285L12.4385-26.7285ZM55.1196 0L57.7637 0L30.6382-70.459L29.4326-70.459L29.4326-67.1323Z"/>
  </g>
  <line id="Baseline-S" style="fill:none;stroke:#27AAE1;opacity:1;stroke-width:0.5;" x1="263" x2="3036" y1="696" y2="696"/>
  <line id="Capline-S" style="fill:none;stroke:#27AAE1;opacity:1;stroke-width:0.5;" x1="263" x2="3036" y1="625.541" y2="625.541"/>
  <g id="H-reference" style="fill:#27AAE1;stroke:none;" transform="matrix(1 0 0 1 339 1126)">
   <path d="M0.993654 0L3.63775 0L29.3281-67.1323L30.0303-67.1323L30.0303-70.459L28.1226-70.459ZM11.6885-24.4799L46.9815-24.4799L46.2315-26.7285L12.4385-26.7285ZM55.1196 0L57.7637 0L30.6382-70.459L29.4326-70.459L29.4326-67.1323Z"/>
  </g>
  <line id="Baseline-M" style="fill:none;stroke:#27AAE1;opacity:1;stroke-width:0.5;" x1="263" x2="3036" y1="1126" y2="1126"/>
  <line id="Capline-M" style="fill:none;stroke:#27AAE1;opacity:1;stroke-width:0.5;" x1="263" x2="3036" y1="1055.54" y2="1055.54"/>
  <g id="H-reference" style="fill:#27AAE1;stroke:none;" transform="matrix(1 0 0 1 339 1556)">
   <path d="M0.993654 0L3.63775 0L29.3281-67.1323L30.0303-67.1323L30.0303-70.459L28.1226-70.459ZM11.6885-24.4799L46.9815-24.4799L46.2315-26.7285L12.4385-26.7285ZM55.1196 0L57.7637 0L30.6382-70.459L29.4326-70.459L29.4326-67.1323Z"/>
  </g>
  <line id="Baseline-L" style="fill:none;stroke:#27AAE1;opacity:1;stroke-width:0.5;" x1="263" x2="3036" y1="1556" y2="1556"/>
  <line id="Capline-L" style="fill:none;stroke:#27AAE1;opacity:1;stroke-width:0.5;" x1="263" x2="3036" y1="1485.54" y2="1485.54"/>
  <line id="left-margin-Ultralight-S" style="fill:none;stroke:#00AEEF;stroke-width:0.5;opacity:1.0;" x1="507.908" x2="507.908" y1="600.785" y2="720.121"/>
  <line id="right-margin-Ultralight-S" style="fill:none;stroke:#00AEEF;stroke-width:0.5;opacity:1.0;" x1="611.514" x2="611.514" y1="600.785" y2="720.121"/>
  <line id="left-margin-Regular-S" style="fill:none;stroke:#00AEEF;stroke-width:0.5;opacity:1.0;" x1="1395.82" x2="1395.82" y1="600.785" y2="720.121"/>
  <line id="right-margin-Regular-S" style="fill:none;stroke:#00AEEF;stroke-width:0.5;opacity:1.0;" x1="1503.87" x2="1503.87" y1="600.785" y2="720.121"/>
  <line id="left-margin-Black-S" style="fill:none;stroke:#00AEEF;stroke-width:0.5;opacity:1.0;" x1="2874.98" x2="2874.98" y1="600.785" y2="720.121"/>
  <line id="right-margin-Black-S" style="fill:none;stroke:#00AEEF;stroke-width:0.5;opacity:1.0;" x1="2991.82" x2="2991.82" y1="600.785" y2="720.121"/>
 </g>
 <g id="Symbols">
  <g id="Black-S" transform="matrix(1 0 0 1 2874.98 696)">
   <path class="monochrome-0 multicolor-0:tintColor hierarchical-0:primary SFSymbolsPreviewWireframe" d="M42.3001 12.3403L75.3854 12.3403L75.3854 17.0668L42.3001 17.0668L42.3001 12.3403ZM89.5649 7.61382L89.5649 12.3403L75.3854 12.3403L75.3854 7.61382L89.5649 7.61382ZM28.1206 7.61382L42.3001 7.61382L42.3001 12.3403L28.1206 12.3403L28.1206 7.61382ZM94.2913 2.88734L94.2913 7.61382L89.5649 7.61382L89.5649 2.88734L94.2913 2.88734ZM23.3678 2.88734L23.3678 7.61382L28.0943 7.61382L28.0943 2.88734L23.3678 2.88734ZM13.9412-1.83914L13.9412-30.198L18.6677-30.198L18.6677-1.83914L23.3678-1.83914L23.3678 2.88734L18.6414 2.88734L18.6414-1.83914L13.9412-1.83914ZM99.0178-1.83914L99.0178 2.88734L94.2913 2.88734L94.2913-1.83914L99.0178-1.83914ZM42.3069-1.83914L42.3069-6.56562L47.0333-6.56562L47.0333-1.83914L70.6589-1.83914L70.6589 2.88734L47.0265 2.88734L47.0265-1.83914L42.3069-1.83914ZM75.3854-6.56562L75.3854-1.83914L70.6589-1.83914L70.6589-6.56562L75.3854-6.56562ZM99.0178-30.198L103.744-30.198L103.744-1.83914L99.0178-1.83914L99.0178-30.198ZM75.3854-11.2921L84.8384-11.2921L84.8384-6.56562L75.3854-6.56562L75.3854-11.2921ZM42.3001-11.2921L42.3001-6.56562L32.8471-6.56562L32.8471-11.2921L42.3001-11.2921ZM75.3854-11.2921L70.6589-11.2921L70.6589-16.0186L75.3854-16.0186L75.3854-11.2921ZM42.3001-11.2921L42.3001-16.0186L47.0265-16.0186L47.0265-11.2921L42.3001-11.2921ZM56.4795-20.7451L61.206-20.7451L61.206-16.0186L56.4795-16.0186L56.4795-20.7451ZM47.0265-39.651L51.753-39.651L51.753-25.4715L47.0265-25.4715L47.0265-20.7451L37.5736-20.7451L37.5736-25.4715L42.3001-25.4715L42.3001-34.9245L47.0265-34.9245L47.0265-39.651ZM70.6589-39.651L70.6589-34.9245L75.3854-34.9245L75.3854-25.4715L80.1119-25.4715L80.1119-20.7451L70.6589-20.7451L70.6589-25.4715L65.9325-25.4715L65.9325-39.651L70.6589-39.651ZM37.5736-34.9245L37.5736-25.4715L32.8471-25.4715L32.8471-34.9245L37.5736-34.9245ZM80.1119-34.9245L84.8384-34.9245L84.8384-25.4715L80.1119-25.4715L80.1119-34.9245ZM23.3941-39.651L23.3941-30.198L18.6677-30.198L18.6677-39.651L23.3941-39.651ZM94.2913-39.651L99.0178-39.651L99.0178-30.198L94.2913-30.198L94.2913-39.651ZM42.3001-39.651L42.3001-34.9245L37.5736-34.9245L37.5736-39.651L42.3001-39.651ZM75.3854-39.651L80.1119-39.651L80.1119-34.9245L75.3854-34.9245L75.3854-39.651ZM75.3854-39.651L70.6589-39.651L70.6589-44.3775L75.3854-44.3775L75.3854-39.651ZM28.1206-49.1039L28.1206-39.651L23.3941-39.651L23.3941-49.1039L28.1206-49.1039ZM89.5649-49.1039L94.2913-49.1039L94.2913-39.651L89.5649-39.651L89.5649-49.1039ZM47.0265-39.651L42.3001-39.651L42.3001-44.3775L47.0265-44.3775L47.0265-39.651ZM80.1119-53.8304L89.5649-53.8304L89.5649-49.1039L80.1119-49.1039L80.1119-53.8304ZM37.5736-53.8304L37.5736-49.1039L28.1206-49.1039L28.1206-53.8304L37.5736-53.8304ZM47.0333-68.0099L47.0333-72.7363L51.7598-72.7363L51.7598-68.0099L56.4795-68.0099L56.4795-58.5569L61.206-58.5569L61.206-68.0099L65.9325-68.0099L65.9325-58.5569L80.1119-58.5569L80.1119-53.8304L37.5736-53.8304L37.5736-58.5569L51.753-58.5569L51.753-68.0099L47.0333-68.0099ZM70.6589-72.7363L70.6589-68.0099L65.9325-68.0099L65.9325-72.7363L70.6589-72.7363ZM80.1119-82.1893L84.8384-82.1893L84.8384-86.9158L99.0178-86.9158L99.0178-72.7363L84.8384-72.7363L84.8384-77.4628L80.1119-77.4628L80.1119-72.7363L70.6589-72.7363L70.6589-77.4628L80.1119-77.4628L80.1119-82.1893ZM37.5736-77.4628L47.0265-77.4628L47.0265-72.7363L37.5736-72.7363L37.5736-77.4628ZM37.5736-77.4628L32.8471-77.4628L32.8471-72.7363L18.6677-72.7363L18.6677-86.9158L32.8471-86.9158L32.8471-82.1893L37.5736-82.1893L37.5736-77.4628ZM89.5649-82.1893L94.2913-82.1893L94.2913-77.4628L89.5649-77.4628L89.5649-82.1893ZM23.3941-82.1893L28.1206-82.1893L28.1206-77.4628L23.3941-77.4628L23.3941-82.1893Z"/>
  </g>
  <g id="Regular-S" transform="matrix(1 0 0 1 1395.82 696)">
   <path class="monochrome-0 multicolor-0:tintColor hierarchical-0:primary SFSymbolsPreviewWireframe" d="M37.3901 12.3403L70.4754 12.3403L70.4754 17.0668L37.3901 17.0668L37.3901 12.3403ZM84.6549 7.61382L84.6549 12.3403L70.4754 12.3403L70.4754 7.61382L84.6549 7.61382ZM23.2106 7.61382L37.3901 7.61382L37.3901 12.3403L23.2106 12.3403L23.2106 7.61382ZM89.3813 2.88734L89.3813 7.61382L84.6549 7.61382L84.6549 2.88734L89.3813 2.88734ZM18.4578 2.88734L18.4578 7.61382L23.1843 7.61382L23.1843 2.88734L18.4578 2.88734ZM9.03118-1.83914L9.03118-30.198L13.7577-30.198L13.7577-1.83914L18.4578-1.83914L18.4578 2.88734L13.7314 2.88734L13.7314-1.83914L9.03118-1.83914ZM94.1078-1.83914L94.1078 2.88734L89.3813 2.88734L89.3813-1.83914L94.1078-1.83914ZM37.3969-1.83914L37.3969-6.56562L42.1233-6.56562L42.1233-1.83914L65.7489-1.83914L65.7489 2.88734L42.1165 2.88734L42.1165-1.83914L37.3969-1.83914ZM70.4754-6.56562L70.4754-1.83914L65.7489-1.83914L65.7489-6.56562L70.4754-6.56562ZM94.1078-30.198L98.8343-30.198L98.8343-1.83914L94.1078-1.83914L94.1078-30.198ZM70.4754-11.2921L79.9284-11.2921L79.9284-6.56562L70.4754-6.56562L70.4754-11.2921ZM37.3901-11.2921L37.3901-6.56562L27.9371-6.56562L27.9371-11.2921L37.3901-11.2921ZM70.4754-11.2921L65.7489-11.2921L65.7489-16.0186L70.4754-16.0186L70.4754-11.2921ZM37.3901-11.2921L37.3901-16.0186L42.1165-16.0186L42.1165-11.2921L37.3901-11.2921ZM51.5695-20.7451L56.296-20.7451L56.296-16.0186L51.5695-16.0186L51.5695-20.7451ZM42.1165-39.651L46.843-39.651L46.843-25.4715L42.1165-25.4715L42.1165-20.7451L32.6636-20.7451L32.6636-25.4715L37.3901-25.4715L37.3901-34.9245L42.1165-34.9245L42.1165-39.651ZM65.7489-39.651L65.7489-34.9245L70.4754-34.9245L70.4754-25.4715L75.2019-25.4715L75.2019-20.7451L65.7489-20.7451L65.7489-25.4715L61.0225-25.4715L61.0225-39.651L65.7489-39.651ZM32.6636-34.9245L32.6636-25.4715L27.9371-25.4715L27.9371-34.9245L32.6636-34.9245ZM75.2019-34.9245L79.9284-34.9245L79.9284-25.4715L75.2019-25.4715L75.2019-34.9245ZM18.4841-39.651L18.4841-30.198L13.7577-30.198L13.7577-39.651L18.4841-39.651ZM89.3813-39.651L94.1078-39.651L94.1078-30.198L89.3813-30.198L89.3813-39.651ZM37.3901-39.651L37.3901-34.9245L32.6636-34.9245L32.6636-39.651L37.3901-39.651ZM70.4754-39.651L75.2019-39.651L75.2019-34.9245L70.4754-34.9245L70.4754-39.651ZM70.4754-39.651L65.7489-39.651L65.7489-44.3775L70.4754-44.3775L70.4754-39.651ZM23.2106-49.1039L23.2106-39.651L18.4841-39.651L18.4841-49.1039L23.2106-49.1039ZM84.6549-49.1039L89.3813-49.1039L89.3813-39.651L84.6549-39.651L84.6549-49.1039ZM42.1165-39.651L37.3901-39.651L37.3901-44.3775L42.1165-44.3775L42.1165-39.651ZM75.2019-53.8304L84.6549-53.8304L84.6549-49.1039L75.2019-49.1039L75.2019-53.8304ZM32.6636-53.8304L32.6636-49.1039L23.2106-49.1039L23.2106-53.8304L32.6636-53.8304ZM42.1233-68.0099L42.1233-72.7363L46.8498-72.7363L46.8498-68.0099L51.5695-68.0099L51.5695-58.5569L56.296-58.5569L56.296-68.0099L61.0225-68.0099L61.0225-58.5569L75.2019-58.5569L75.2019-53.8304L32.6636-53.8304L32.6636-58.5569L46.843-58.5569L46.843-68.0099L42.1233-68.0099ZM65.7489-72.7363L65.7489-68.0099L61.0225-68.0099L61.0225-72.7363L65.7489-72.7363ZM75.2019-82.1893L79.9284-82.1893L79.9284-86.9158L94.1078-86.9158L94.1078-72.7363L79.9284-72.7363L79.9284-77.4628L75.2019-77.4628L75.2019-72.7363L65.7489-72.7363L65.7489-77.4628L75.2019-77.4628L75.2019-82.1893ZM32.6636-77.4628L42.1165-77.4628L42.1165-72.7363L32.6636-72.7363L32.6636-77.4628ZM32.6636-77.4628L27.9371-77.4628L27.9371-72.7363L13.7577-72.7363L13.7577-86.9158L27.9371-86.9158L27.9371-82.1893L32.6636-82.1893L32.6636-77.4628ZM84.6549-82.1893L89.3813-82.1893L89.3813-77.4628L84.6549-77.4628L84.6549-82.1893ZM18.4841-82.1893L23.2106-82.1893L23.2106-77.4628L18.4841-77.4628L18.4841-82.1893Z"/>
  </g>
  <g id="Ultralight-S" transform="matrix(1 0 0 1 507.908 696)">
   <path class="monochrome-0 multicolor-0:tintColor hierarchical-0:primary SFSymbolsPreviewWireframe" d="M35.8731 12.3403L68.9584 12.3403L68.9584 17.0668L35.8731 17.0668L35.8731 12.3403ZM83.1379 7.61382L83.1379 12.3403L68.9584 12.3403L68.9584 7.61382L83.1379 7.61382ZM21.6936 7.61382L35.8731 7.61382L35.8731 12.3403L21.6936 12.3403L21.6936 7.61382ZM87.8643 2.88734L87.8643 7.61382L83.1379 7.61382L83.1379 2.88734L87.8643 2.88734ZM16.9408 2.88734L16.9408 7.61382L21.6673 7.61382L21.6673 2.88734L16.9408 2.88734ZM7.51418-1.83914L7.51418-30.198L12.2407-30.198L12.2407-1.83914L16.9408-1.83914L16.9408 2.88734L12.2144 2.88734L12.2144-1.83914L7.51418-1.83914ZM92.5908-1.83914L92.5908 2.88734L87.8643 2.88734L87.8643-1.83914L92.5908-1.83914ZM35.8799-1.83914L35.8799-6.56562L40.6063-6.56562L40.6063-1.83914L64.2319-1.83914L64.2319 2.88734L40.5995 2.88734L40.5995-1.83914L35.8799-1.83914ZM68.9584-6.56562L68.9584-1.83914L64.2319-1.83914L64.2319-6.56562L68.9584-6.56562ZM92.5908-30.198L97.3173-30.198L97.3173-1.83914L92.5908-1.83914L92.5908-30.198ZM68.9584-11.2921L78.4114-11.2921L78.4114-6.56562L68.9584-6.56562L68.9584-11.2921ZM35.8731-11.2921L35.8731-6.56562L26.4201-6.56562L26.4201-11.2921L35.8731-11.2921ZM68.9584-11.2921L64.2319-11.2921L64.2319-16.0186L68.9584-16.0186L68.9584-11.2921ZM35.8731-11.2921L35.8731-16.0186L40.5995-16.0186L40.5995-11.2921L35.8731-11.2921ZM50.0525-20.7451L54.779-20.7451L54.779-16.0186L50.0525-16.0186L50.0525-20.7451ZM40.5995-39.651L45.326-39.651L45.326-25.4715L40.5995-25.4715L40.5995-20.7451L31.1466-20.7451L31.1466-25.4715L35.8731-25.4715L35.8731-34.9245L40.5995-34.9245L40.5995-39.651ZM64.2319-39.651L64.2319-34.9245L68.9584-34.9245L68.9584-25.4715L73.6849-25.4715L73.6849-20.7451L64.2319-20.7451L64.2319-25.4715L59.5055-25.4715L59.5055-39.651L64.2319-39.651ZM31.1466-34.9245L31.1466-25.4715L26.4201-25.4715L26.4201-34.9245L31.1466-34.9245ZM73.6849-34.9245L78.4114-34.9245L78.4114-25.4715L73.6849-25.4715L73.6849-34.9245ZM16.9671-39.651L16.9671-30.198L12.2407-30.198L12.2407-39.651L16.9671-39.651ZM87.8643-39.651L92.5908-39.651L92.5908-30.198L87.8643-30.198L87.8643-39.651ZM35.8731-39.651L35.8731-34.9245L31.1466-34.9245L31.1466-39.651L35.8731-39.651ZM68.9584-39.651L73.6849-39.651L73.6849-34.9245L68.9584-34.9245L68.9584-39.651ZM68.9584-39.651L64.2319-39.651L64.2319-44.3775L68.9584-44.3775L68.9584-39.651ZM21.6936-49.1039L21.6936-39.651L16.9671-39.651L16.9671-49.1039L21.6936-49.1039ZM83.1379-49.1039L87.8643-49.1039L87.8643-39.651L83.1379-39.651L83.1379-49.1039ZM40.5995-39.651L35.8731-39.651L35.8731-44.3775L40.5995-44.3775L40.5995-39.651ZM73.6849-53.8304L83.1379-53.8304L83.1379-49.1039L73.6849-49.1039L73.6849-53.8304ZM31.1466-53.8304L31.1466-49.1039L21.6936-49.1039L21.6936-53.8304L31.1466-53.8304ZM40.6063-68.0099L40.6063-72.7363L45.3328-72.7363L45.3328-68.0099L50.0525-68.0099L50.0525-58.5569L54.779-58.5569L54.779-68.0099L59.5055-68.0099L59.5055-58.5569L73.6849-58.5569L73.6849-53.8304L31.1466-53.8304L31.1466-58.5569L45.326-58.5569L45.326-68.0099L40.6063-68.0099ZM64.2319-72.7363L64.2319-68.0099L59.5055-68.0099L59.5055-72.7363L64.2319-72.7363ZM73.6849-82.1893L78.4114-82.1893L78.4114-86.9158L92.5908-86.9158L92.5908-72.7363L78.4114-72.7363L78.4114-77.4628L73.6849-77.4628L73.6849-72.7363L64.2319-72.7363L64.2319-77.4628L73.6849-77.4628L73.6849-82.1893ZM31.1466-77.4628L40.5995-77.4628L40.5995-72.7363L31.1466-72.7363L31.1466-77.4628ZM31.1466-77.4628L26.4201-77.4628L26.4201-72.7363L12.2407-72.7363L12.2407-86.9158L26.4201-86.9158L26.4201-82.1893L31.1466-82.1893L31.1466-77.4628ZM83.1379-82.1893L87.8643-82.1893L87.8643-77.4628L83.1379-77.4628L83.1379-82.1893ZM16.9671-82.1893L21.6936-82.1893L21.6936-77.4628L16.9671-77.4628L16.9671-82.1893Z"/>
  </g>
 </g>
</svg>
