<?xml version="1.0" encoding="utf-8"?>
<!-- Generator: Adobe Illustrator 25.4.1, SVG Export Plug-In . SVG Version: 6.00 Build 0)  -->
<svg version="1.1" id="Layer_1" xmlns="http://www.w3.org/2000/svg" xmlns:xlink="http://www.w3.org/1999/xlink" x="0px" y="0px"
	 viewBox="0 0 45.9 46.9" style="enable-background:new 0 0 45.9 46.9;" xml:space="preserve">
<style type="text/css">
	.st0{fill:#FFFFFF;}
	.st1{stroke:#000000;stroke-width:0.6234;stroke-linecap:round;}
</style>
<path class="st0" d="M37.4,36.7c0,0-0.9-0.2-1.8-1.2c-1.1-1.1-1.3-1.6-1.4-1.7c-0.1-0.3-0.5-0.5-0.8-0.3c-0.3,0.1-0.5,0.5-0.3,0.8
	c0,0.1,0.3,0.7,1.2,1.7c-0.6,0.9-3.3,4-12,4c-7.5,0-10.2-3-10.9-4c1-1,1.2-1.6,1.3-1.7c0.1-0.3,0-0.7-0.3-0.8
	c-0.3-0.1-0.7,0-0.8,0.3c0,0-0.3,0.6-1.4,1.7c-1,1-1.8,1.2-1.8,1.2C8,36.6,7.8,37,7.9,37.3c0.1,0.3,0.3,0.5,0.6,0.5
	c0.1,0,0.1,0,0.2,0c0,0,0.8-0.2,1.8-1c1,1.4,4.1,4.4,11.9,4.4c8.8,0,11.9-3,12.9-4.3c1,0.8,1.9,1.1,1.9,1.1c0.1,0,0.1,0,0.2,0
	c0.3,0,0.5-0.2,0.6-0.5C38,37.1,37.8,36.8,37.4,36.7z"/>
<g id="Ellipse-1">
	<g id="Ellipse">
		<path class="st0" d="M24.8,31.4c0-0.8-1-1.4-2.2-1.4c-1.2,0-2.2,0.6-2.2,1.4c0,0.8,1,1.4,2.2,1.4C23.8,32.8,24.8,32.2,24.8,31.4z"
			/>
	</g>
</g>
<g id="Path-copy-1-1">
	<g id="stroke-path-1">
		<path class="st0" d="M30.2,30.1c-1.4,0-2.7-0.9-3.6-2.6c-0.9-1.6-1.2-3.7-0.8-6c0.3-2.2,1.3-3.6,2.6-4.1c0.8-0.3,2-0.3,3.6,1.1
			c1.3,1.2,2.3,3,2.9,4.8c0.3,1,0.3,2.1,0,3.1c-0.7,1.9-2.4,3.4-4.3,3.7l0,0C30.4,30.1,30.3,30.1,30.2,30.1z M30.4,29.5L30.4,29.5
			L30.4,29.5z M29.2,18.5c-0.1,0-0.3,0-0.4,0.1c-0.8,0.3-1.5,1.5-1.8,3.1c-0.3,2-0.1,3.9,0.7,5.2c0.3,0.5,1.3,2.1,2.7,1.9
			c1.4-0.2,2.8-1.4,3.3-2.9c0.2-0.7,0.2-1.5,0-2.3c-0.5-1.6-1.4-3.1-2.5-4.2C30.6,19,29.9,18.5,29.2,18.5z"/>
	</g>
</g>
<g id="Path-copy-3-1">
	<g id="stroke-path-2">
		<path class="st0" d="M15.8,30.1c-0.7,0-1.5-0.2-2.2-0.6c-1.3-0.8-2.4-2.2-2.7-3.6c-0.5-2.5,1.2-5.4,2.7-7.1c1.7-1.6,3-1.7,3.8-1.4
			c1.3,0.4,2.3,1.9,2.7,4.1c0.1,0.7,0.3,2.5-0.1,4.1c-0.3,1-1.1,3.4-3.3,4.3l0,0C16.5,30,16.2,30.1,15.8,30.1z M16.6,29.3L16.6,29.3
			L16.6,29.3z M16.8,18.5c-0.8,0-1.5,0.6-2.1,1.2c-1.5,1.6-2.8,4-2.4,5.9c0.2,1,1,2.1,2.1,2.7c0.5,0.3,1.3,0.6,2.1,0.4
			c1.1-0.4,2.1-1.7,2.5-3.4c0.2-1,0.3-2.3,0-3.6c-0.3-1.7-1-2.9-1.8-3.1C17,18.5,16.9,18.5,16.8,18.5z"/>
	</g>
</g>
<g id="Ellipse-4">
	<g id="Ellipse-3">
		<path class="st0" d="M17.3,25c0-1-0.7-1.8-1.6-1.8c-0.9,0-1.6,0.8-1.6,1.8c0,1,0.7,1.8,1.6,1.8C16.6,26.8,17.3,26,17.3,25z"/>
	</g>
</g>
<g id="Path-8">
	<path id="stroke-path-8" class="st1" d="M0,0"/>
</g>
<g id="Path-copy-2-1">
	<path id="stroke-path-9" class="st1" d="M0,0"/>
</g>
<g id="Ellipse-copy-1-1">
	<g id="Ellipse-copy-1_00000158727374405409110650000018279334319629607558_">
		<g id="Ellipse-copy_00000152983648973910493780000002834853544519558298_">
			<path class="st0" d="M31.9,25c0-0.9-0.7-1.7-1.5-1.7s-1.5,0.8-1.5,1.7c0,0.9,0.7,1.7,1.5,1.7S31.9,26,31.9,25z"/>
		</g>
	</g>
</g>
<path class="st0" d="M45.2,27.5c-1.9-6.6-7-12.3-13.5-15.3c-1.8-0.8-3.7-1.3-5.6-1.6L25.6,10c-0.4-0.4-0.9-0.7-1.5-0.9
	c1.6-5.1,6.5-5.9,8.2-6.1c0.1,0.3,0.3,0.5,0.5,0.7c0.5,0.4,1.1,0.6,1.8,0.6c0.2,0,0.3,0,0.5,0l0.1,0c1-0.3,1.7-0.9,1.8-1.7
	c0.2-1-0.4-1.8-1.6-2.3c-0.1,0-0.5-0.1-0.8-0.1l-0.6,0.1l-0.7,0.3L33,0.6c-0.4,0.3-0.7,0.6-0.9,1.2c-2,0.2-7.5,1.1-9.3,7
	c-1.7-5.8-7.2-6.8-9.2-7c-0.2-0.9-1.1-1.6-2.3-1.6c-0.8,0-1.6,0.4-2.1,1C8.9,1.6,8.8,2.2,9,2.9c0.4,0.9,1.3,1.5,2.3,1.5
	c0.3,0,0.6,0,0.9-0.1l0.1,0c0.7-0.3,1.1-0.7,1.3-1.2c1.8,0.1,6.4,1,8,5.9c-0.7,0.1-1.6,0.4-2,1.3l-0.2,0.5
	c-4.7,0.9-9.2,3.3-12.9,7.3c-3.5,3.8-5.7,8.5-6,12.9c-0.3,3.9,0.9,7.2,3.4,9.8c5.3,5.5,14.9,6.2,19.3,6.2c0.6,0,1.1,0,1.5,0
	c4.1-0.1,14.2-1,18.9-7.4C45.9,36.3,46.5,32.3,45.2,27.5z M33.7,1.6l0.4-0.2l0.4,0c0.1,0,0.3,0,0.4,0.1c0.8,0.4,0.8,0.8,0.7,0.9
	c-0.1,0.4-0.7,0.6-0.9,0.7c-0.4,0.1-0.9-0.1-1.2-0.3c-0.2-0.2-0.3-0.4-0.3-0.6C33.3,2,33.4,1.8,33.7,1.6z M11.8,3
	c-0.6,0.2-1.4,0-1.6-0.6c-0.1-0.2,0-0.4,0.1-0.6c0.2-0.3,0.6-0.5,1-0.5c0,0,0,0,0,0c0.7,0,1.1,0.4,1.2,0.8C12.5,2.5,12.3,2.8,11.8,3
	z M42.1,38.4c-3,4-9.5,6.5-17.6,6.7h0C18,45.4,9.4,44,5,39.5c-2.2-2.2-3.1-5.1-2.9-8.4c0.4-4,2.4-8.3,5.6-11.8
	c4.3-4.7,9.8-7.1,15.4-7.1c2.6,0,5.3,0.6,7.9,1.7C37,16.5,41.8,22,43.5,28C44.7,32.2,44.2,35.7,42.1,38.4z"/>
</svg>
