<?xml version="1.0" encoding="utf-8"?>
<!-- Generator: Adobe Illustrator 26.5.0, SVG Export Plug-In . SVG Version: 6.00 Build 0)  -->
<svg version="1.1" id="Layer_1" xmlns="http://www.w3.org/2000/svg" xmlns:xlink="http://www.w3.org/1999/xlink" x="0px" y="0px"
	 viewBox="0 0 445.6 445.4" style="enable-background:new 0 0 445.6 445.4;" xml:space="preserve">
<g>
	<g>
		<path d="M271.7,339.3l-46.5-69.4h-37.5v69.4H140v-217h99.2c51.2,0,81.8,27,81.8,71.6v0.6c0,35-18.9,57-46.5,67.3l53,77.5H271.7z
			 M272.6,196.4c0-20.5-14.3-31-37.5-31h-47.4v62.3h48.4c23.2,0,36.6-12.4,36.6-30.7v-0.6H272.6z"/>
	</g>
</g>
<g>
	<path d="M340.1,77.8c0-12.6,9.2-23.1,21.2-25.2c-6.6-1.3-13.6,0.8-18.4,6.2c-5.5,6.2-6.3,15-2.6,22
		C340.2,79.8,340.1,78.8,340.1,77.8z"/>
	<path d="M445.1,209.7c-3.1-49.2-22-95-53.8-131.6c-0.1,14-11.5,25.3-25.6,25.3c-1.5,0-3-0.1-4.5-0.4c59.7,68.1,61,171.9-0.5,241.6
		c-36.1,40.9-86.6,61.8-137.3,61.8c-43,0-86.2-15.1-121-45.7c-8.1-7.1-20.4-6.4-27.5,1.7s-6.4,20.4,1.7,27.5
		c40.9,36.1,92.5,55.5,146.6,55.5c4.7,0,9.4-0.1,14.1-0.4c59.2-3.7,113.4-30.2,152.6-74.7C429.2,326,448.8,268.9,445.1,209.7z"/>
</g>
<g>
	<path d="M85.1,393c1,0.1,1.9,0.2,2.9,0.2c5.4,0,10.8-2.2,14.6-6.6c4.1-4.6,5.6-10.6,4.6-16.3C105.9,382.1,96.7,391.5,85.1,393z"/>
	<path d="M368.8,55.5C324.3,16.3,267.3-3.3,208.1,0.4C148.9,4.1,94.7,30.6,55.5,75.1C16.3,119.5-3.3,176.6,0.4,235.8
		c3.1,50.3,22.8,96.9,55.8,133.9c-0.1-0.7-0.1-1.3-0.1-2c0-14.1,11.5-25.6,25.6-25.6c0.8,0,1.5,0,2.3,0.1
		c-59.5-68.1-60.7-171.7,0.7-241.3C151.5,25.2,267.3,18,343,84.8c8.1,7.1,20.4,6.4,27.5-1.7C377.7,74.9,376.9,62.6,368.8,55.5z"/>
</g>
</svg>
