<?xml version="1.0" encoding="UTF-8" standalone="no"?>
<!DOCTYPE svg PUBLIC "-//W3C//DTD SVG 1.1//EN" "http://www.w3.org/Graphics/SVG/1.1/DTD/svg11.dtd">
<svg width="100%" height="100%" viewBox="0 0 189 218" version="1.1" xmlns="http://www.w3.org/2000/svg" xmlns:xlink="http://www.w3.org/1999/xlink" xml:space="preserve" xmlns:serif="http://www.serif.com/" style="fill-rule:evenodd;clip-rule:evenodd;stroke-linejoin:round;stroke-miterlimit:2;">
    <g id="Artboard1" transform="matrix(0.641831,0,0,0.715714,-56.3974,-54.1896)">
        <rect x="87.87" y="75.714" width="293.333" height="303.612" style="fill:none;"/>
        <g transform="matrix(1.55804,0,0,1.39721,-110.002,-67.4996)">
            <path d="M258.7,319.5L212.2,250.1L174.7,250.1L174.7,319.5L127,319.5L127,102.5L226.2,102.5C277.4,102.5 308,129.5 308,174.1L308,174.7C308,209.7 289.1,231.7 261.5,242L314.5,319.5L258.7,319.5ZM259.6,176.6C259.6,156.1 245.3,145.6 222.1,145.6L174.7,145.6L174.7,207.9L223.1,207.9C246.3,207.9 259.7,195.5 259.7,177.2L259.7,176.6L259.6,176.6Z" style="fill:white;fill-rule:nonzero;"/>
        </g>
    </g>
</svg>
